<svg id="Empyre_Design_Logo" data-name="Empyre Design Logo" xmlns="http://www.w3.org/2000/svg" viewBox="0 0 1054.74 169.13"><defs><style>.cls-1{font-size:130px;font-family:ProximaNova-Bold, Proxima Nova;font-weight:700;}.cls-2,.cls-3{font-size:110px;}.cls-3{letter-spacing:-0.01em;}</style></defs><title>Empyre Design</title><g id="Empyre_Design_Logo-2" data-name="Empyre Design Logo"><path d="M100.4,109.18,58.8,150.79,48,139.94,77,110.85,63.38,97.19,34.91,125.66,24.15,114.91,52.63,86.44,39.84,73.65,10.75,102.74,0,92,41.61,50.38Z" transform="translate(0 -6.57)"/><path d="M47.77,44.21,71,21C89.37,2.6,113.88,1.55,131.6,19.27s16.57,42.13-1.85,60.55L106.56,103Zm71,24.6c11.63-11.64,10-26.8.09-36.76C108.41,21.65,94.05,20,82,32.05L71.3,42.71l36.76,36.76Z" transform="translate(0 -6.57)"/><text class="cls-1" transform="translate(170.07 121.29)">E<tspan class="cls-2" x="75.79" y="0">M</tspan><tspan class="cls-3" x="169.84" y="0">P</tspan><tspan class="cls-2" x="237.71" y="0">YRE </tspan><tspan x="471.68" y="0">D</tspan><tspan class="cls-2" x="565.01" y="0">ESIGN</tspan></text></g></svg>